SplineFontDB: 1.0
FontName: Digital-Bold-Digits
FullName: Digital Bold Digits
FamilyName: Digital Digits
Weight: Bold
Copyright: 
Version: 1.0
ItalicAngle: 0
UnderlinePosition: -120
UnderlineWidth: 70
Ascent: 880
Descent: 220
Order2: 1
NeedsXUIDChange: 1
XUID: [1021 555 146130107 1439765]
FSType: 2
OS2Version: 1
OS2_WeightWidthSlopeOnly: 0
OS2_UseTypoMetrics: 1
CreationTime: -1164963219
ModificationTime: 1368710734
PfmFamily: 81
TTFWeight: 700
TTFWidth: 5
LineGap: 0
VLineGap: 0
Panose: 0 0 0 0 0 0 0 0 0 0
OS2TypoAscent: -80
OS2TypoAOffset: 1
OS2TypoDescent: 420
OS2TypoDOffset: 1
OS2TypoLinegap: 0
OS2WinAscent: 0
OS2WinAOffset: 1
OS2WinDescent: 0
OS2WinDOffset: 1
HheadAscent: 0
HheadAOffset: 1
HheadDescent: -13
HheadDOffset: 1
OS2SubXSize: 700
OS2SubYSize: 650
OS2SubXOff: 0
OS2SubYOff: 143
OS2SupXSize: 700
OS2SupYSize: 650
OS2SupXOff: 0
OS2SupYOff: 453
OS2StrikeYSize: 50
OS2StrikeYPos: 259
OS2Vendor: 'Alts'
TtfTable: prep 191
5RnhV*?>Ru"9\])&.h82NOT#hKm#mu6l<62!(Hr=ZN:+r!%YAX!(Hr=ZNUe-!%YA[%7U=JZNgJ"
!%YA]!(Hr=ZO%(1!%YA_"@`AAZO7=6!%YAa"@`AAZOR+-!%YAd%7U=JZOma<!%YAg%7U=JZP*m>
!%YAi%7U=JZP<U4!%YAk&4QXMZPO'?!%YAm&4QXMZP`m8!%YAo"@`AAZPs$:!%YAq"@`AA7;,(X
BLG:&6q(cW7;,'h
EndTtf
TtfTable: fpgm 100
5Qq;o!s/HRG"!OX"!pA\@;$K&BOF4[/4C\c"!pA\@;$m!?plRt+<\2o^c2t35QNc&/M&"eYWt/\
YQ6Yls1gTG/-2tEFs':g(aDLYBHUD"YQH0r33WH1'!MBpAN3gE
EndTtf
TtfTable: cvt  88
!k\Ti!iQ/j!LEe"!!!+*!\j[J!UTig!J:@P!W2p3s473=!-J7"!/gl]s'Pi@s)S1e!<`EQ!BC-n
!,)A#!2'=g!5SX_!5SXP!,)@$!3uS]!07+"
EndTtf
TtfTable: maxp 32
!!*'"!,2F2!"Ju/!!!!#!!iQi!"&]+!*]H2z
EndTtf
LangName: 1033 "" "" "Bold" "Digital Bold: Version 1.0" "" "1.0" 
Encoding: UnicodeBmp
UnicodeInterp: none
NameList: Adobe Glyph List
DisplaySize: -48
AntiAlias: 1
FitToEm: 1
WinInfo: 0 15 8
BeginChars: 65539 27
StartChar: .notdef
Encoding: 65536 -1 0
Width: 550
Flags: W
Fore
34 0 m 1,0,-1
 34 900 l 1,1,-1
 516 900 l 1,2,-1
 516 0 l 1,3,-1
 34 0 l 1,0,-1
482 34 m 1,4,-1
 482 866 l 1,5,-1
 68 866 l 1,6,-1
 68 34 l 1,7,-1
 482 34 l 1,4,-1
EndSplineSet
EndChar
StartChar: plus
Encoding: 43 43 4
Width: 517
GlyphClass: 2
Flags: W
Fore
311 422 m 1,0,-1
 259 369 l 1,1,-1
 206 422 l 1,2,-1
 206 510 l 1,3,-1
 259 562 l 1,4,-1
 311 510 l 1,5,-1
 311 422 l 1,0,-1
470 350 m 1,6,-1
 418 298 l 1,7,-1
 330 298 l 1,8,-1
 278 350 l 1,9,-1
 330 402 l 1,10,-1
 418 402 l 1,11,-1
 470 350 l 1,6,-1
239 350 m 1,12,-1
 187 298 l 1,13,-1
 99 298 l 1,14,-1
 47 350 l 1,15,-1
 99 402 l 1,16,-1
 187 402 l 1,17,-1
 239 350 l 1,12,-1
311 190 m 1,18,-1
 259 138 l 1,19,-1
 206 190 l 1,20,-1
 206 278 l 1,21,-1
 259 330 l 1,22,-1
 311 278 l 1,23,-1
 311 190 l 1,18,-1
EndSplineSet
EndChar
StartChar: comma
Encoding: 44 44 5
Width: 198
GlyphClass: 2
Flags: W
Fore
151 -64 m 1,0,-1
 99 -116 l 1,1,-1
 47 -64 l 1,2,-1
 47 75 l 1,3,-1
 151 75 l 1,4,-1
 151 -64 l 1,0,-1
EndSplineSet
EndChar
StartChar: hyphen
Encoding: 45 45 6
Width: 560
GlyphClass: 2
Flags: HWO
Fore
501 350 m 1,0,-1
 449 298 l 1,1,-1
 110 298 l 1,2,-1
 58 350 l 1,3,-1
 110 402 l 1,4,-1
 449 402 l 1,5,-1
 501 350 l 1,0,-1
EndSplineSet
EndChar
StartChar: period
Encoding: 46 46 7
Width: 198
GlyphClass: 2
Flags: W
Fore
47 0 m 1,0,-1
 47 104 l 1,1,-1
 151 104 l 1,2,-1
 151 0 l 1,3,-1
 47 0 l 1,0,-1
EndSplineSet
EndChar
StartChar: slash
Encoding: 47 47 8
Width: 539
GlyphClass: 2
Flags: W
Fore
260 296 m 1,0,-1
 63 -42 l 1,1,-1
 24 101 l 1,2,-1
 156 326 l 1,3,-1
 246 349 l 1,4,-1
 260 296 l 1,0,-1
241 473 m 1,5,-1
 373 700 l 1,6,-1
 517 737 l 1,7,-1
 319 398 l 1,8,-1
 266 384 l 1,9,-1
 241 473 l 1,5,-1
EndSplineSet
EndChar
StartChar: zero
Encoding: 48 48 9
Width: 560
GlyphClass: 2
Flags: W
Fore
482 700 m 1,0,-1
 378 595 l 1,1,-1
 182 595 l 1,2,-1
 78 700 l 1,3,-1
 482 700 l 1,0,-1
482 0 m 1,4,-1
 78 0 l 1,5,-1
 182 104 l 1,6,-1
 378 104 l 1,7,-1
 482 0 l 1,4,-1
162 265 m 1,8,-1
 162 124 l 1,9,-1
 58 20 l 1,10,-1
 58 291 l 1,11,-1
 97 330 l 1,12,-1
 162 265 l 1,8,-1
58 409 m 1,13,-1
 58 680 l 1,14,-1
 162 576 l 1,15,-1
 162 435 l 1,16,-1
 97 369 l 1,17,-1
 58 409 l 1,13,-1
501 291 m 1,18,-1
 501 20 l 1,19,-1
 397 124 l 1,20,-1
 397 265 l 1,21,-1
 462 330 l 1,22,-1
 501 291 l 1,18,-1
397 435 m 1,23,-1
 397 576 l 1,24,-1
 501 680 l 1,25,-1
 501 409 l 1,26,-1
 462 369 l 1,27,-1
 397 435 l 1,23,-1
EndSplineSet
EndChar
StartChar: one
Encoding: 49 49 10
Width: 560
GlyphClass: 2
Flags: W
Fore
501 291 m 1,0,-1
 501 20 l 1,1,-1
 397 124 l 1,2,-1
 397 265 l 1,3,-1
 462 330 l 1,4,-1
 501 291 l 1,0,-1
397 435 m 1,5,-1
 397 576 l 1,6,-1
 501 680 l 1,7,-1
 501 409 l 1,8,-1
 462 369 l 1,9,-1
 397 435 l 1,5,-1
EndSplineSet
EndChar
StartChar: two
Encoding: 50 50 11
Width: 560
GlyphClass: 2
Flags: WO
Fore
482 700 m 1,0,-1
 378 595 l 1,1,-1
 182 595 l 1,2,-1
 78 700 l 1,3,-1
 482 700 l 1,0,-1
482 0 m 1,4,-1
 78 0 l 1,5,-1
 182 104 l 1,6,-1
 378 104 l 1,7,-1
 482 0 l 1,4,-1
162 265 m 1,8,-1
 162 124 l 1,9,-1
 58 20 l 1,10,-1
 58 291 l 1,11,-1
 97 330 l 1,12,-1
 162 265 l 1,8,-1
397 435 m 1,13,-1
 397 576 l 1,14,-1
 501 680 l 1,15,-1
 501 409 l 1,16,-1
 462 369 l 1,17,-1
 397 435 l 1,13,-1
391 402 m 1,18,-1
 443 350 l 1,19,-1
 391 298 l 1,20,-1
 169 298 l 1,21,-1
 117 350 l 5,22,-1
 169 402 l 1,23,-1
 391 402 l 1,18,-1
EndSplineSet
EndChar
StartChar: three
Encoding: 51 51 12
Width: 560
GlyphClass: 2
Flags: W
Fore
482 700 m 1,0,-1
 378 595 l 1,1,-1
 182 595 l 1,2,-1
 78 700 l 1,3,-1
 482 700 l 1,0,-1
482 0 m 1,4,-1
 78 0 l 1,5,-1
 182 104 l 1,6,-1
 378 104 l 1,7,-1
 482 0 l 1,4,-1
501 291 m 1,8,-1
 501 20 l 1,9,-1
 397 124 l 1,10,-1
 397 265 l 1,11,-1
 462 330 l 1,12,-1
 501 291 l 1,8,-1
397 435 m 1,13,-1
 397 576 l 1,14,-1
 501 680 l 1,15,-1
 501 409 l 1,16,-1
 462 369 l 1,17,-1
 397 435 l 1,13,-1
391 402 m 1,18,-1
 443 350 l 1,19,-1
 391 298 l 1,20,-1
 169 298 l 1,21,-1
 117 350 l 1,22,-1
 169 402 l 1,23,-1
 391 402 l 1,18,-1
EndSplineSet
EndChar
StartChar: four
Encoding: 52 52 13
Width: 560
GlyphClass: 2
Flags: WO
Fore
58 409 m 1,0,-1
 58 680 l 1,1,-1
 162 576 l 1,2,-1
 162 435 l 1,3,-1
 97 369 l 1,4,-1
 58 409 l 1,0,-1
501 291 m 1,5,-1
 501 20 l 1,6,-1
 397 124 l 1,7,-1
 397 265 l 1,8,-1
 462 330 l 1,9,-1
 501 291 l 1,5,-1
397 435 m 1,10,-1
 397 576 l 1,11,-1
 501 680 l 1,12,-1
 501 409 l 1,13,-1
 462 369 l 1,14,-1
 397 435 l 1,10,-1
391 402 m 1,15,-1
 443 350 l 1,16,-1
 391 298 l 1,17,-1
 169 298 l 1,18,-1
 117 350 l 1,19,-1
 169 402 l 1,20,-1
 391 402 l 1,15,-1
EndSplineSet
EndChar
StartChar: five
Encoding: 53 53 14
Width: 560
GlyphClass: 2
Flags: W
Fore
482 700 m 1,0,-1
 378 595 l 1,1,-1
 182 595 l 1,2,-1
 78 700 l 1,3,-1
 482 700 l 1,0,-1
482 0 m 1,4,-1
 78 0 l 1,5,-1
 182 104 l 1,6,-1
 378 104 l 1,7,-1
 482 0 l 1,4,-1
58 409 m 1,8,-1
 58 680 l 1,9,-1
 162 576 l 1,10,-1
 162 435 l 1,11,-1
 97 369 l 1,12,-1
 58 409 l 1,8,-1
501 291 m 1,13,-1
 501 20 l 1,14,-1
 397 124 l 1,15,-1
 397 265 l 1,16,-1
 462 330 l 1,17,-1
 501 291 l 1,13,-1
391 402 m 1,18,-1
 443 350 l 1,19,-1
 391 298 l 1,20,-1
 169 298 l 1,21,-1
 117 350 l 1,22,-1
 169 402 l 1,23,-1
 391 402 l 1,18,-1
EndSplineSet
EndChar
StartChar: six
Encoding: 54 54 15
Width: 560
GlyphClass: 2
Flags: W
Fore
482 700 m 1,0,-1
 378 595 l 1,1,-1
 182 595 l 1,2,-1
 78 700 l 1,3,-1
 482 700 l 1,0,-1
482 0 m 1,4,-1
 78 0 l 1,5,-1
 182 104 l 1,6,-1
 378 104 l 1,7,-1
 482 0 l 1,4,-1
162 265 m 1,8,-1
 162 124 l 1,9,-1
 58 20 l 1,10,-1
 58 291 l 1,11,-1
 97 330 l 1,12,-1
 162 265 l 1,8,-1
58 409 m 1,13,-1
 58 680 l 1,14,-1
 162 576 l 1,15,-1
 162 435 l 1,16,-1
 97 369 l 1,17,-1
 58 409 l 1,13,-1
501 291 m 1,18,-1
 501 20 l 1,19,-1
 397 124 l 1,20,-1
 397 265 l 1,21,-1
 462 330 l 1,22,-1
 501 291 l 1,18,-1
391 402 m 1,23,-1
 443 350 l 1,24,-1
 391 298 l 1,25,-1
 169 298 l 1,26,-1
 117 350 l 1,27,-1
 169 402 l 1,28,-1
 391 402 l 1,23,-1
EndSplineSet
EndChar
StartChar: seven
Encoding: 55 55 16
Width: 560
GlyphClass: 2
Flags: W
Fore
482 700 m 1,0,-1
 378 595 l 1,1,-1
 182 595 l 1,2,-1
 78 700 l 1,3,-1
 482 700 l 1,0,-1
501 291 m 1,4,-1
 501 20 l 1,5,-1
 397 124 l 1,6,-1
 397 265 l 1,7,-1
 462 330 l 1,8,-1
 501 291 l 1,4,-1
397 435 m 1,9,-1
 397 576 l 1,10,-1
 501 680 l 1,11,-1
 501 409 l 1,12,-1
 462 369 l 1,13,-1
 397 435 l 1,9,-1
EndSplineSet
EndChar
StartChar: eight
Encoding: 56 56 17
Width: 560
GlyphClass: 2
Flags: W
Fore
482 700 m 1,0,-1
 378 595 l 1,1,-1
 182 595 l 1,2,-1
 78 700 l 1,3,-1
 482 700 l 1,0,-1
482 0 m 1,4,-1
 78 0 l 1,5,-1
 182 104 l 1,6,-1
 378 104 l 1,7,-1
 482 0 l 1,4,-1
162 265 m 1,8,-1
 162 124 l 1,9,-1
 58 20 l 1,10,-1
 58 291 l 1,11,-1
 97 330 l 1,12,-1
 162 265 l 1,8,-1
58 409 m 1,13,-1
 58 680 l 1,14,-1
 162 576 l 1,15,-1
 162 435 l 1,16,-1
 97 369 l 1,17,-1
 58 409 l 1,13,-1
501 291 m 1,18,-1
 501 20 l 1,19,-1
 397 124 l 1,20,-1
 397 265 l 1,21,-1
 462 330 l 1,22,-1
 501 291 l 1,18,-1
397 435 m 1,23,-1
 397 576 l 1,24,-1
 501 680 l 1,25,-1
 501 409 l 1,26,-1
 462 369 l 1,27,-1
 397 435 l 1,23,-1
391 402 m 1,28,-1
 443 350 l 1,29,-1
 391 298 l 1,30,-1
 169 298 l 1,31,-1
 117 350 l 1,32,-1
 169 402 l 1,33,-1
 391 402 l 1,28,-1
EndSplineSet
EndChar
StartChar: nine
Encoding: 57 57 18
Width: 560
GlyphClass: 2
Flags: W
Fore
482 700 m 1,0,-1
 378 595 l 1,1,-1
 182 595 l 1,2,-1
 78 700 l 1,3,-1
 482 700 l 1,0,-1
482 0 m 1,4,-1
 78 0 l 1,5,-1
 182 104 l 1,6,-1
 378 104 l 1,7,-1
 482 0 l 1,4,-1
58 409 m 1,8,-1
 58 680 l 1,9,-1
 162 576 l 1,10,-1
 162 435 l 1,11,-1
 97 369 l 1,12,-1
 58 409 l 1,8,-1
501 291 m 1,13,-1
 501 20 l 1,14,-1
 397 124 l 1,15,-1
 397 265 l 1,16,-1
 462 330 l 1,17,-1
 501 291 l 1,13,-1
397 435 m 1,18,-1
 397 576 l 1,19,-1
 501 680 l 1,20,-1
 501 409 l 1,21,-1
 462 369 l 1,22,-1
 397 435 l 1,18,-1
391 402 m 1,23,-1
 443 350 l 1,24,-1
 391 298 l 1,25,-1
 169 298 l 1,26,-1
 117 350 l 1,27,-1
 169 402 l 1,28,-1
 391 402 l 1,23,-1
EndSplineSet
EndChar
StartChar: colon
Encoding: 58 58 19
Width: 350
GlyphClass: 2
Flags: W
Fore
123 117 m 1,0,-1
 123 221 l 1,1,-1
 228 221 l 1,2,-1
 228 117 l 1,3,-1
 123 117 l 1,0,-1
123 479 m 1,4,-1
 123 583 l 1,5,-1
 228 583 l 1,6,-1
 228 479 l 1,7,-1
 123 479 l 1,4,-1
EndSplineSet
EndChar
StartChar: endash
Encoding: 8211 8211 20
Width: 513
GlyphClass: 2
Flags: W
Fore
47 350 m 0,0,1
 47 437 47 437 108.5 498.5 c 128,-1,2
 170 560 170 560 256 560 c 0,3,4
 344 560 344 560 405 499 c 128,-1,5
 466 438 466 438 466 350 c 0,6,7
 466 263 466 263 404.5 201.5 c 128,-1,8
 343 140 343 140 256 140 c 256,9,10
 169 140 169 140 108 201 c 128,-1,11
 47 262 47 262 47 350 c 0,0,1
EndSplineSet
EndChar
StartChar: emdash
Encoding: 8212 8212 21
Width: 532
GlyphClass: 2
Flags: W
Fore
492 387 m 1,0,-1
 530 350 l 1,1,-1
 492 313 l 1,2,-1
 36 313 l 1,3,-1
 -2 350 l 1,4,-1
 36 387 l 1,5,-1
 492 387 l 1,0,-1
EndSplineSet
EndChar
StartChar: quoteright
Encoding: 8217 8217 22
Width: 198
GlyphClass: 2
Flags: W
Fore
151 508 m 1,0,-1
 47 508 l 1,1,-1
 47 648 l 1,2,-1
 99 700 l 1,3,-1
 151 648 l 1,4,-1
 151 508 l 1,0,-1
EndSplineSet
EndChar
StartChar: quotedblleft
Encoding: 8220 8220 23
Width: 198
GlyphClass: 2
Flags: W
Fore
151 561 m 1,0,-1
 99 508 l 1,1,-1
 47 561 l 1,2,-1
 47 700 l 1,3,-1
 151 700 l 1,4,-1
 151 561 l 1,0,-1
EndSplineSet
EndChar
StartChar: quotedblright
Encoding: 8221 8221 24
Width: 340
GlyphClass: 2
Flags: W
Fore
293 508 m 1,0,-1
 188 508 l 1,1,-1
 188 648 l 1,2,-1
 241 700 l 1,3,-1
 293 648 l 1,4,-1
 293 508 l 1,0,-1
151 508 m 1,5,-1
 47 508 l 1,6,-1
 47 648 l 1,7,-1
 99 700 l 1,8,-1
 151 648 l 1,9,-1
 151 508 l 1,5,-1
EndSplineSet
EndChar
StartChar: bullet
Encoding: 8226 8226 25
Width: 340
GlyphClass: 2
Flags: W
Fore
151 561 m 1,0,-1
 99 508 l 1,1,-1
 47 561 l 1,2,-1
 47 700 l 1,3,-1
 151 700 l 1,4,-1
 151 561 l 1,0,-1
293 561 m 1,5,-1
 241 508 l 1,6,-1
 188 561 l 1,7,-1
 188 700 l 1,8,-1
 293 700 l 1,9,-1
 293 561 l 1,5,-1
EndSplineSet
EndChar
StartChar: perthousand
Encoding: 8240 8240 26
Width: 1115
GlyphClass: 2
Flags: W
Fore
290 650 m 1,0,-1
 237 598 l 1,1,-1
 182 598 l 1,2,-1
 130 650 l 1,3,-1
 182 703 l 1,4,-1
 237 703 l 1,5,-1
 290 650 l 1,0,-1
290 423 m 1,6,-1
 237 370 l 1,7,-1
 182 370 l 1,8,-1
 130 423 l 1,9,-1
 182 475 l 1,10,-1
 237 475 l 1,11,-1
 290 423 l 1,6,-1
58 494 m 1,12,-1
 110 445 l 1,13,-1
 162 494 l 1,14,-1
 162 578 l 1,15,-1
 110 631 l 1,16,-1
 58 578 l 1,17,-1
 58 494 l 1,12,-1
257 494 m 1,18,-1
 257 578 l 1,19,-1
 309 631 l 1,20,-1
 361 578 l 1,21,-1
 361 494 l 1,22,-1
 309 445 l 1,23,-1
 257 494 l 1,18,-1
638 281 m 1,24,-1
 586 229 l 1,25,-1
 532 229 l 1,26,-1
 479 281 l 1,27,-1
 532 334 l 1,28,-1
 586 334 l 1,29,-1
 638 281 l 1,24,-1
638 59 m 1,30,-1
 586 7 l 1,31,-1
 532 7 l 1,32,-1
 479 59 l 1,33,-1
 532 111 l 1,34,-1
 586 111 l 1,35,-1
 638 59 l 1,30,-1
407 130 m 1,36,-1
 459 81 l 1,37,-1
 512 130 l 1,38,-1
 512 210 l 1,39,-1
 459 262 l 1,40,-1
 407 210 l 1,41,-1
 407 130 l 1,36,-1
606 130 m 1,42,-1
 606 210 l 1,43,-1
 658 262 l 1,44,-1
 710 210 l 1,45,-1
 710 130 l 1,46,-1
 658 81 l 1,47,-1
 606 130 l 1,42,-1
395 481 m 1,48,-1
 531 716 l 1,49,-1
 673 754 l 1,50,-1
 472 406 l 1,51,-1
 419 393 l 1,52,-1
 395 481 l 1,48,-1
413 305 m 1,53,-1
 199 -66 l 1,54,-1
 161 76 l 1,55,-1
 310 334 l 1,56,-1
 400 359 l 1,57,-1
 413 305 l 1,53,-1
985 281 m 1,58,-1
 933 229 l 1,59,-1
 878 229 l 1,60,-1
 826 281 l 1,61,-1
 878 334 l 1,62,-1
 933 334 l 1,63,-1
 985 281 l 1,58,-1
985 59 m 1,64,-1
 933 7 l 1,65,-1
 878 7 l 1,66,-1
 826 59 l 1,67,-1
 878 111 l 1,68,-1
 933 111 l 1,69,-1
 985 59 l 1,64,-1
754 130 m 1,70,-1
 806 81 l 1,71,-1
 858 130 l 1,72,-1
 858 210 l 1,73,-1
 806 262 l 1,74,-1
 754 210 l 1,75,-1
 754 130 l 1,70,-1
953 130 m 1,76,-1
 953 210 l 1,77,-1
 1005 262 l 1,78,-1
 1057 210 l 1,79,-1
 1057 130 l 1,80,-1
 1005 81 l 1,81,-1
 953 130 l 1,76,-1
EndSplineSet
EndChar
